<svg width="1200" height="1200" viewBox="0 0 1200 1200" fill="none" xmlns="http://www.w3.org/2000/svg">
<path d="M918.97 544.192L955.62 522.202L918.97 500.212V544.192Z" fill="#3E7C8A" stroke="#3E7C8A" stroke-width="20" stroke-linejoin="round"/>
<path d="M908.201 609.55L948.437 595.132L916.781 566.415L908.201 609.55Z" fill="#3E7C8A" stroke="#3E7C8A" stroke-width="20" stroke-linejoin="round"/>
<path d="M884.888 671.551L927.164 665.26L901.719 630.919L884.888 671.551Z" fill="#3E7C8A" stroke="#3E7C8A" stroke-width="20" stroke-linejoin="round"/>
<path d="M849.928 727.812L892.619 729.89L874.362 691.244L849.928 727.812Z" fill="#3E7C8A" stroke="#3E7C8A" stroke-width="20" stroke-linejoin="round"/>
<path d="M804.663 776.172L846.128 786.538L835.762 745.074L804.663 776.172Z" fill="#3E7C8A" stroke="#3E7C8A" stroke-width="20" stroke-linejoin="round"/>
<path d="M750.834 814.772L789.48 833.028L787.402 790.338L750.834 814.772Z" fill="#3E7C8A" stroke="#3E7C8A" stroke-width="20" stroke-linejoin="round"/>
<path d="M690.508 842.129L724.85 867.573L731.14 825.298L690.508 842.129Z" fill="#3E7C8A" stroke="#3E7C8A" stroke-width="20" stroke-linejoin="round"/>
<path d="M626.006 857.191L654.723 888.846L669.14 848.611L626.006 857.191Z" fill="#3E7C8A" stroke="#3E7C8A" stroke-width="20" stroke-linejoin="round"/>
<path d="M559.803 859.38L581.793 896.03L603.783 859.38H559.803Z" fill="#3E7C8A" stroke="#3E7C8A" stroke-width="20" stroke-linejoin="round"/>
<path d="M494.445 848.611L508.863 888.846L537.58 857.191L494.445 848.611Z" fill="#3E7C8A" stroke="#3E7C8A" stroke-width="20" stroke-linejoin="round"/>
<path d="M432.444 825.299L438.734 867.574L473.076 842.129L432.444 825.299Z" fill="#3E7C8A" stroke="#3E7C8A" stroke-width="20" stroke-linejoin="round"/>
<path d="M376.182 790.338L374.105 833.028L412.75 814.772L376.182 790.338Z" fill="#3E7C8A" stroke="#3E7C8A" stroke-width="20" stroke-linejoin="round"/>
<path d="M327.822 745.074L317.456 786.538L358.921 776.172L327.822 745.074Z" fill="#3E7C8A" stroke="#3E7C8A" stroke-width="20" stroke-linejoin="round"/>
<path d="M289.223 691.244L270.966 729.89L313.656 727.812L289.223 691.244Z" fill="#3E7C8A" stroke="#3E7C8A" stroke-width="20" stroke-linejoin="round"/>
<path d="M261.866 630.918L236.421 665.26L278.696 671.55L261.866 630.918Z" fill="#3E7C8A" stroke="#3E7C8A" stroke-width="20" stroke-linejoin="round"/>
<path d="M246.804 566.415L215.148 595.132L255.384 609.55L246.804 566.415Z" fill="#3E7C8A" stroke="#3E7C8A" stroke-width="20" stroke-linejoin="round"/>
<path d="M244.615 500.212L207.966 522.202L244.615 544.192V500.212Z" fill="#3E7C8A" stroke="#3E7C8A" stroke-width="20" stroke-linejoin="round"/>
<path d="M255.383 434.855L215.148 449.272L246.803 477.989L255.383 434.855Z" fill="#3E7C8A" stroke="#3E7C8A" stroke-width="20" stroke-linejoin="round"/>
<path d="M278.696 372.854L236.421 379.145L261.866 413.486L278.696 372.854Z" fill="#3E7C8A" stroke="#3E7C8A" stroke-width="20" stroke-linejoin="round"/>
<path d="M313.656 316.592L270.966 314.515L289.222 353.16L313.656 316.592Z" fill="#3E7C8A" stroke="#3E7C8A" stroke-width="20" stroke-linejoin="round"/>
<path d="M358.921 268.232L317.457 257.866L327.823 299.331L358.921 268.232Z" fill="#3E7C8A" stroke="#3E7C8A" stroke-width="20" stroke-linejoin="round"/>
<path d="M412.75 229.633L374.105 211.376L376.183 254.066L412.75 229.633Z" fill="#3E7C8A" stroke="#3E7C8A" stroke-width="20" stroke-linejoin="round"/>
<path d="M473.076 202.276L438.735 176.831L432.444 219.106L473.076 202.276Z" fill="#3E7C8A" stroke="#3E7C8A" stroke-width="20" stroke-linejoin="round"/>
<path d="M537.58 187.213L508.863 155.558L494.446 195.793L537.58 187.213Z" fill="#3E7C8A" stroke="#3E7C8A" stroke-width="20" stroke-linejoin="round"/>
<path d="M603.782 185.025L581.792 148.375L559.802 185.025H603.782Z" fill="#3E7C8A" stroke="#3E7C8A" stroke-width="20" stroke-linejoin="round"/>
<path d="M669.139 195.793L654.722 155.558L626.005 187.213L669.139 195.793Z" fill="#3E7C8A" stroke="#3E7C8A" stroke-width="20" stroke-linejoin="round"/>
<path d="M731.141 219.106L724.85 176.831L690.509 202.276L731.141 219.106Z" fill="#3E7C8A" stroke="#3E7C8A" stroke-width="20" stroke-linejoin="round"/>
<path d="M787.402 254.066L789.48 211.376L750.834 229.632L787.402 254.066Z" fill="#3E7C8A" stroke="#3E7C8A" stroke-width="20" stroke-linejoin="round"/>
<path d="M835.762 299.331L846.128 257.866L804.664 268.232L835.762 299.331Z" fill="#3E7C8A" stroke="#3E7C8A" stroke-width="20" stroke-linejoin="round"/>
<path d="M874.362 353.16L892.618 314.515L849.928 316.592L874.362 353.16Z" fill="#3E7C8A" stroke="#3E7C8A" stroke-width="20" stroke-linejoin="round"/>
<path d="M901.719 413.486L927.164 379.145L884.888 372.854L901.719 413.486Z" fill="#3E7C8A" stroke="#3E7C8A" stroke-width="20" stroke-linejoin="round"/>
<path d="M916.781 477.99L948.436 449.272L908.201 434.855L916.781 477.99Z" fill="#3E7C8A" stroke="#3E7C8A" stroke-width="20" stroke-linejoin="round"/>
<mask id="path-33-inside-1_410_752" fill="white">
<path fill-rule="evenodd" clip-rule="evenodd" d="M460.846 795.648C463.465 814.999 441.452 827.916 425.836 816.192L349.775 759.084C334.264 747.439 340.318 722.878 359.464 719.775L426.329 708.935C438.546 706.955 449.991 715.437 451.651 727.701L460.846 795.648ZM395.371 745.077C402.772 735.448 416.578 733.642 426.207 741.042C435.836 748.443 437.642 762.249 430.241 771.878C422.84 781.507 409.034 783.313 399.405 775.912C389.776 768.511 387.97 754.706 395.371 745.077Z"/>
</mask>
<path fill-rule="evenodd" clip-rule="evenodd" d="M460.846 795.648C463.465 814.999 441.452 827.916 425.836 816.192L349.775 759.084C334.264 747.439 340.318 722.878 359.464 719.775L426.329 708.935C438.546 706.955 449.991 715.437 451.651 727.701L460.846 795.648ZM395.371 745.077C402.772 735.448 416.578 733.642 426.207 741.042C435.836 748.443 437.642 762.249 430.241 771.878C422.84 781.507 409.034 783.313 399.405 775.912C389.776 768.511 387.97 754.706 395.371 745.077Z" fill="#3E7C8A"/>
<path d="M425.836 816.192L422.233 820.99L422.233 820.99L425.836 816.192ZM460.846 795.648L454.9 796.453L454.9 796.453L460.846 795.648ZM349.775 759.084L346.172 763.882L346.172 763.882L349.775 759.084ZM359.464 719.775L358.503 713.852L358.503 713.852L359.464 719.775ZM426.329 708.935L427.289 714.858L427.289 714.858L426.329 708.935ZM451.651 727.701L445.705 728.506L445.705 728.506L451.651 727.701ZM399.405 775.912L395.749 780.67L395.749 780.67L399.405 775.912ZM422.233 820.99C442.108 835.912 470.125 819.472 466.792 794.843L454.9 796.453C456.805 810.526 440.795 819.92 429.438 811.393L422.233 820.99ZM346.172 763.882L422.233 820.99L429.438 811.393L353.377 754.286L346.172 763.882ZM358.503 713.852C334.136 717.802 326.432 749.061 346.172 763.882L353.377 754.286C342.097 745.817 346.5 727.954 360.424 725.697L358.503 713.852ZM425.369 703.013L358.503 713.852L360.424 725.697L427.289 714.858L425.369 703.013ZM457.597 726.897C455.484 711.288 440.917 700.492 425.369 703.013L427.289 714.858C436.174 713.418 444.498 719.587 445.705 728.506L457.597 726.897ZM466.792 794.843L457.597 726.897L445.705 728.506L454.9 796.453L466.792 794.843ZM429.863 736.285C417.607 726.865 400.034 729.164 390.614 741.42L400.128 748.733C405.51 741.732 415.548 740.418 422.55 745.8L429.863 736.285ZM434.998 775.534C444.418 763.278 442.119 745.706 429.863 736.285L422.55 745.8C429.552 751.181 430.865 761.22 425.484 768.222L434.998 775.534ZM395.749 780.67C408.005 790.09 425.578 787.791 434.998 775.534L425.484 768.222C420.102 775.223 410.064 776.537 403.062 771.155L395.749 780.67ZM390.614 741.42C381.194 753.677 383.493 771.249 395.749 780.67L403.062 771.155C396.06 765.774 394.747 755.735 400.128 748.733L390.614 741.42Z" fill="#3E7C8A" mask="url(#path-33-inside-1_410_752)"/>
<mask id="path-35-inside-2_410_752" fill="white">
<path fill-rule="evenodd" clip-rule="evenodd" d="M513.089 231.594C497.847 218.2 507.32 193.068 527.611 193.068H637.791C658.082 193.068 667.555 218.2 652.314 231.594L597.224 280.006C588.918 287.306 576.484 287.306 568.179 280.006L513.089 231.594ZM603.869 226.215C603.869 238.36 594.024 248.205 581.879 248.205C569.734 248.205 559.889 238.36 559.889 226.215C559.889 214.071 569.734 204.226 581.879 204.226C594.024 204.226 603.869 214.071 603.869 226.215Z"/>
</mask>
<path fill-rule="evenodd" clip-rule="evenodd" d="M513.089 231.594C497.847 218.2 507.32 193.068 527.611 193.068H637.791C658.082 193.068 667.555 218.2 652.314 231.594L597.224 280.006C588.918 287.306 576.484 287.306 568.179 280.006L513.089 231.594ZM603.869 226.215C603.869 238.36 594.024 248.205 581.879 248.205C569.734 248.205 559.889 238.36 559.889 226.215C559.889 214.071 569.734 204.226 581.879 204.226C594.024 204.226 603.869 214.071 603.869 226.215Z" fill="#3E7C8A"/>
<path d="M513.089 231.594L509.128 236.101L509.128 236.101L513.089 231.594ZM652.314 231.594L648.353 227.087L648.353 227.087L652.314 231.594ZM597.224 280.006L601.184 284.513L601.184 284.513L597.224 280.006ZM568.179 280.006L564.218 284.513L564.218 284.513L568.179 280.006ZM527.611 187.068C501.786 187.068 489.729 219.054 509.128 236.101L517.049 227.087C505.964 217.346 512.854 199.068 527.611 199.068V187.068ZM637.791 187.068H527.611V199.068H637.791V187.068ZM656.274 236.101C675.673 219.054 663.616 187.068 637.791 187.068V199.068C652.548 199.068 659.438 217.346 648.353 227.087L656.274 236.101ZM601.184 284.513L656.274 236.101L648.353 227.087L593.263 275.499L601.184 284.513ZM564.218 284.513C574.789 293.803 590.613 293.803 601.184 284.513L593.263 275.499C587.222 280.808 578.18 280.808 572.139 275.499L564.218 284.513ZM509.128 236.101L564.218 284.513L572.139 275.499L517.049 227.087L509.128 236.101ZM581.879 254.205C597.337 254.205 609.869 241.674 609.869 226.215H597.869C597.869 235.046 590.71 242.205 581.879 242.205V254.205ZM553.889 226.215C553.889 241.674 566.421 254.205 581.879 254.205V242.205C573.048 242.205 565.889 235.046 565.889 226.215H553.889ZM581.879 198.226C566.421 198.226 553.889 210.757 553.889 226.215H565.889C565.889 217.384 573.048 210.226 581.879 210.226V198.226ZM609.869 226.215C609.869 210.757 597.337 198.226 581.879 198.226V210.226C590.71 210.226 597.869 217.384 597.869 226.215H609.869Z" fill="#3E7C8A" mask="url(#path-35-inside-2_410_752)"/>
<mask id="path-37-inside-3_410_752" fill="white">
<path fill-rule="evenodd" clip-rule="evenodd" d="M285.814 492.147C268.427 501.076 248.9 484.59 254.786 465.952L284.43 372.079C290.383 353.228 316.245 351.183 325.086 368.865L356.377 431.447C361.77 442.232 357.476 455.348 346.749 460.856L285.814 492.147ZM313.827 407.896C325.378 411.649 331.699 424.055 327.946 435.605C324.193 447.156 311.787 453.477 300.237 449.724C288.687 445.971 282.366 433.565 286.119 422.015C289.871 410.465 302.277 404.144 313.827 407.896Z"/>
</mask>
<path fill-rule="evenodd" clip-rule="evenodd" d="M285.814 492.147C268.427 501.076 248.9 484.59 254.786 465.952L284.43 372.079C290.383 353.228 316.245 351.183 325.086 368.865L356.377 431.447C361.77 442.232 357.476 455.348 346.749 460.856L285.814 492.147ZM313.827 407.896C325.378 411.649 331.699 424.055 327.946 435.605C324.193 447.156 311.787 453.477 300.237 449.724C288.687 445.971 282.366 433.565 286.119 422.015C289.871 410.465 302.277 404.144 313.827 407.896Z" fill="#3E7C8A"/>
<path d="M254.786 465.952L260.507 467.759L260.507 467.759L254.786 465.952ZM285.814 492.147L283.073 486.81L283.073 486.81L285.814 492.147ZM284.43 372.079L278.708 370.272L278.708 370.272L284.43 372.079ZM325.086 368.865L319.72 371.548L319.72 371.548L325.086 368.865ZM356.377 431.447L351.011 434.13L351.011 434.13L356.377 431.447ZM346.749 460.856L349.49 466.194L349.49 466.194L346.749 460.856ZM327.946 435.605L333.652 437.459L333.652 437.459L327.946 435.605ZM313.827 407.896L311.973 413.603L311.973 413.603L313.827 407.896ZM286.119 422.015L291.825 423.869L291.825 423.869L286.119 422.015ZM249.064 464.145C241.573 487.867 266.426 508.848 288.555 497.485L283.073 486.81C270.428 493.303 256.227 481.314 260.507 467.759L249.064 464.145ZM278.708 370.272L249.064 464.145L260.507 467.759L290.151 373.885L278.708 370.272ZM330.453 366.182C319.201 343.678 286.285 346.28 278.708 370.272L290.151 373.885C294.481 360.176 313.29 358.689 319.72 371.548L330.453 366.182ZM361.744 428.764L330.453 366.182L319.72 371.548L351.011 434.13L361.744 428.764ZM349.49 466.194C363.142 459.183 368.607 442.49 361.744 428.764L351.011 434.13C354.932 441.974 351.81 451.513 344.009 455.519L349.49 466.194ZM288.555 497.485L349.49 466.194L344.009 455.519L283.073 486.81L288.555 497.485ZM333.652 437.459C338.429 422.758 330.383 406.967 315.682 402.19L311.973 413.603C320.372 416.332 324.968 425.352 322.239 433.751L333.652 437.459ZM298.383 455.43C313.085 460.207 328.875 452.161 333.652 437.459L322.239 433.751C319.511 442.15 310.49 446.746 302.091 444.017L298.383 455.43ZM280.412 420.161C275.635 434.862 283.681 450.653 298.383 455.43L302.091 444.017C293.692 441.288 289.096 432.268 291.825 423.869L280.412 420.161ZM315.682 402.19C300.98 397.413 285.189 405.459 280.412 420.161L291.825 423.869C294.554 415.47 303.575 410.874 311.973 413.603L315.682 402.19Z" fill="#3E7C8A" mask="url(#path-37-inside-3_410_752)"/>
<mask id="path-39-inside-4_410_752" fill="white">
<path fill-rule="evenodd" clip-rule="evenodd" d="M803.074 720.422C822.224 723.774 827.934 748.497 812.193 759.906L736.453 814.803C720.499 826.367 698.556 812.736 701.852 793.309L713.083 727.124C715.123 715.101 726.553 707.031 738.565 709.133L803.074 720.422ZM734.771 768.375C727.755 758.462 730.104 744.738 740.017 737.723C749.93 730.707 763.654 733.055 770.67 742.969C777.685 752.882 775.337 766.605 765.424 773.621C755.511 780.637 741.787 778.288 734.771 768.375Z"/>
</mask>
<path fill-rule="evenodd" clip-rule="evenodd" d="M803.074 720.422C822.224 723.774 827.934 748.497 812.193 759.906L736.453 814.803C720.499 826.367 698.556 812.736 701.852 793.309L713.083 727.124C715.123 715.101 726.553 707.031 738.565 709.133L803.074 720.422ZM734.771 768.375C727.755 758.462 730.104 744.738 740.017 737.723C749.93 730.707 763.654 733.055 770.67 742.969C777.685 752.882 775.337 766.605 765.424 773.621C755.511 780.637 741.787 778.288 734.771 768.375Z" fill="#3E7C8A"/>
<path d="M812.193 759.906L808.672 755.048L812.193 759.906ZM803.074 720.422L802.04 726.333L802.04 726.333L803.074 720.422ZM736.453 814.803L732.932 809.945L732.932 809.945L736.453 814.803ZM701.852 793.309L695.937 792.306L695.937 792.306L701.852 793.309ZM713.083 727.124L718.998 728.127L718.998 728.127L713.083 727.124ZM738.565 709.133L737.531 715.044L737.531 715.044L738.565 709.133ZM734.771 768.375L739.668 764.909L739.668 764.909L734.771 768.375ZM815.714 764.764C835.748 750.243 828.481 718.777 804.108 714.512L802.04 726.333C815.967 728.77 820.119 746.75 808.672 755.048L815.714 764.764ZM739.974 819.661L815.714 764.764L808.672 755.048L732.932 809.945L739.974 819.661ZM695.937 792.306C691.741 817.031 719.669 834.379 739.974 819.661L732.932 809.945C721.329 818.355 705.37 808.442 707.768 794.313L695.937 792.306ZM707.167 726.12L695.937 792.306L707.768 794.313L718.998 728.127L707.167 726.12ZM739.599 703.223C724.311 700.548 709.764 710.818 707.167 726.12L718.998 728.127C720.482 719.384 728.795 713.515 737.531 715.044L739.599 703.223ZM804.108 714.512L739.599 703.223L737.531 715.044L802.04 726.333L804.108 714.512ZM736.551 732.825C723.933 741.755 720.943 759.223 729.873 771.841L739.668 764.909C734.567 757.701 736.275 747.722 743.483 742.62L736.551 732.825ZM775.567 739.502C766.637 726.884 749.169 723.895 736.551 732.825L743.483 742.62C750.691 737.519 760.67 739.226 765.772 746.435L775.567 739.502ZM768.89 778.519C781.508 769.589 784.497 752.12 775.567 739.502L765.772 746.435C770.874 753.643 769.166 763.622 761.957 768.724L768.89 778.519ZM729.873 771.841C738.804 784.459 756.272 787.449 768.89 778.519L761.957 768.724C754.749 773.825 744.77 772.117 739.668 764.909L729.873 771.841Z" fill="#3E7C8A" mask="url(#path-39-inside-4_410_752)"/>
<mask id="path-41-inside-5_410_752" fill="white">
<path fill-rule="evenodd" clip-rule="evenodd" d="M839.175 371.93C848.067 354.321 873.852 356.411 879.792 375.222L908.96 467.585C914.925 486.475 894.842 503.008 877.45 493.526L818.007 461.118C807.576 455.431 803.544 442.49 808.899 431.885L839.175 371.93ZM871.522 449.724C859.972 453.477 847.566 447.156 843.813 435.605C840.06 424.055 846.381 411.649 857.931 407.896C869.482 404.144 881.887 410.465 885.64 422.015C889.393 433.565 883.072 445.971 871.522 449.724Z"/>
</mask>
<path fill-rule="evenodd" clip-rule="evenodd" d="M839.175 371.93C848.067 354.321 873.852 356.411 879.792 375.222L908.96 467.585C914.925 486.475 894.842 503.008 877.45 493.526L818.007 461.118C807.576 455.431 803.544 442.49 808.899 431.885L839.175 371.93ZM871.522 449.724C859.972 453.477 847.566 447.156 843.813 435.605C840.06 424.055 846.381 411.649 857.931 407.896C869.482 404.144 881.887 410.465 885.64 422.015C889.393 433.565 883.072 445.971 871.522 449.724Z" fill="#3E7C8A"/>
<path d="M879.792 375.222L885.514 373.415L885.514 373.415L879.792 375.222ZM839.175 371.93L844.531 374.634L844.531 374.634L839.175 371.93ZM908.96 467.585L914.681 465.779L914.681 465.779L908.96 467.585ZM877.45 493.526L880.322 488.258L880.322 488.258L877.45 493.526ZM818.007 461.118L820.879 455.85L820.879 455.85L818.007 461.118ZM808.899 431.885L803.544 429.181L803.544 429.181L808.899 431.885ZM843.813 435.605L849.519 433.751L849.519 433.751L843.813 435.605ZM857.931 407.896L856.077 402.19L856.077 402.19L857.931 407.896ZM885.64 422.015L879.934 423.869L879.934 423.869L885.64 422.015ZM885.514 373.415C877.954 349.474 845.137 346.814 833.82 369.225L844.531 374.634C850.998 361.828 869.751 363.348 874.071 377.029L885.514 373.415ZM914.681 465.779L885.514 373.415L874.071 377.029L903.238 469.392L914.681 465.779ZM874.578 498.794C896.713 510.862 922.273 489.819 914.681 465.779L903.238 469.392C907.577 483.13 892.971 495.154 880.322 488.258L874.578 498.794ZM815.135 466.386L874.578 498.794L880.322 488.258L820.879 455.85L815.135 466.386ZM803.544 429.181C796.728 442.678 801.859 459.148 815.135 466.386L820.879 455.85C813.293 451.714 810.361 442.302 814.255 434.59L803.544 429.181ZM833.82 369.225L803.544 429.181L814.255 434.59L844.531 374.634L833.82 369.225ZM838.107 437.459C842.884 452.161 858.674 460.207 873.376 455.43L869.668 444.017C861.269 446.746 852.248 442.15 849.519 433.751L838.107 437.459ZM856.077 402.19C841.376 406.967 833.33 422.758 838.107 437.459L849.519 433.751C846.791 425.352 851.387 416.332 859.786 413.603L856.077 402.19ZM891.347 420.161C886.57 405.459 870.779 397.413 856.077 402.19L859.786 413.603C868.184 410.874 877.205 415.47 879.934 423.869L891.347 420.161ZM873.376 455.43C888.078 450.653 896.123 434.863 891.347 420.161L879.934 423.869C882.663 432.268 878.067 441.288 869.668 444.017L873.376 455.43Z" fill="#3E7C8A" mask="url(#path-41-inside-5_410_752)"/>
<path fill-rule="evenodd" clip-rule="evenodd" d="M929.934 523.11C929.934 714.881 774.473 870.342 582.702 870.342C390.931 870.342 235.47 714.881 235.47 523.11C235.47 331.34 390.931 175.878 582.702 175.878C774.473 175.878 929.934 331.34 929.934 523.11ZM862.727 519.336C862.727 606.348 823.891 684.19 762.785 736.116C765.83 737.68 768.554 739.981 770.669 742.968C777.684 752.882 775.336 766.605 765.423 773.621C755.51 780.637 741.786 778.288 734.77 768.375C732.822 765.623 731.596 762.577 731.053 759.462C688.039 786.675 637.187 802.406 582.702 802.406C528.39 802.406 477.69 786.776 434.763 759.723C434.525 763.99 433.042 768.233 430.241 771.878C422.84 781.507 409.035 783.313 399.406 775.912C389.777 768.511 387.97 754.706 395.371 745.076C397.913 741.769 401.211 739.385 404.835 737.979C342.453 686.062 302.676 607.395 302.676 519.336C302.676 495.572 305.573 472.492 311.029 450.438C307.542 451.085 303.848 450.896 300.237 449.723C288.687 445.97 282.366 433.565 286.119 422.015C289.872 410.464 302.277 404.143 313.828 407.896C317.39 409.054 320.456 411.035 322.881 413.56C361.96 315.563 453.721 244.752 562.699 236.978C560.91 233.796 559.89 230.125 559.89 226.215C559.89 214.07 569.735 204.225 581.88 204.225C594.025 204.225 603.87 214.07 603.87 226.215C603.87 230.081 602.872 233.713 601.121 236.869C712.983 244.212 806.939 317.951 844.81 419.491C847.301 414.17 851.905 409.855 857.933 407.896C869.483 404.143 881.889 410.464 885.642 422.015C889.394 433.565 883.073 445.971 871.523 449.723C865.349 451.729 858.931 450.857 853.721 447.847C859.599 470.683 862.727 494.64 862.727 519.336Z" fill="#3E7C8A"/>
<path d="M901.445 536.826L678.969 361H488.155L706.5 536.826L488.155 698H678.969L901.445 536.826Z" fill="url(#paint0_linear_410_752)"/>
<path d="M639.068 536.826L418.083 361H278.125L513.843 536.826L292.857 698H418.083L639.068 536.826Z" fill="url(#paint1_linear_410_752)"/>
<path d="M463.876 536.826L242.102 361H146L367.774 536.826L146 698H242.102L463.876 536.826Z" fill="url(#paint2_linear_410_752)"/>
<path d="M1145 536.826L922.523 361H720.71L946 536.826L720.71 698H922.523L1145 536.826Z" fill="url(#paint3_linear_410_752)"/>
<path d="M768.251 512.557L759.027 458L789.798 481.422L800 529.739L768.251 512.557Z" fill="#909EB2"/>
<path d="M715.742 535.67L768.251 512.557L799.956 529.231L756.242 549L715.742 535.67Z" fill="#455668"/>
<path d="M715.742 535.67L768.251 512.557L759.027 458L711 480.428L715.742 535.67Z" fill="#F2F7FD"/>
<path d="M579.351 709.622L583.892 640L550.09 667.67L540 733.838L579.351 709.622Z" fill="#B4FAFF"/>
<path d="M652 730.811L579.07 709.622L540 733.838L609.023 752L652 730.811Z" fill="#3E7C8A"/>
<path d="M652 730.811L579.351 709.622L583.892 640L652 659.373V730.811Z" fill="#31D7E1"/>
<path d="M633.07 400.97L697 424.065L645.247 441L596.538 419.446L633.07 400.97Z" fill="#455668"/>
<path d="M633.03 400.971L633.03 324L690.912 353.243L697 424.065L633.03 400.971Z" fill="#909EB2"/>
<path d="M633.03 400.971L633.03 324L599.582 360.941L595 420.985L633.03 400.971Z" fill="#F2F7FD"/>
<path d="M767.834 673.911L843 689.077L791.33 715L728.231 700.779L767.834 673.911Z" fill="#455668"/>
<path d="M767.834 673.911L761.222 596L830.794 617.795L843 689.077L767.834 673.911Z" fill="#909EB2"/>
<path d="M767.834 673.911L761.222 596L726 634.376L728.231 700.779L767.834 673.911Z" fill="#F2F7FD"/>
<path d="M395.883 544.436L409.671 456L365.493 488.431L349 570.68L395.883 544.436Z" fill="#F2F7FD"/>
<path d="M479.285 573.009L395.883 544.436L349 570.68L428.025 596L479.285 573.009Z" fill="#455668"/>
<path d="M479.285 573.009L395.883 544.436L409.671 456L484 484.095L479.285 573.009Z" fill="#909EB2"/>
<path d="M484.32 688.297L489.6 628L458.8 651.964L450 709.27L484.32 688.297Z" fill="#F2F7FD"/>
<path d="M549 704.027L484.074 688.297L450 709.429L510.198 725L549 704.027Z" fill="#455668"/>
<path d="M549 704.027L484.32 688.297L488.751 628L547.68 644.778L549 704.027Z" fill="#909EB2"/>
<path d="M557.52 650.622L563.6 581L528.133 608.67L518 674.838L557.52 650.622Z" fill="#F2F7FD"/>
<path d="M632 668.784L557.237 650.622L518 675.021L587.319 693L632 668.784Z" fill="#455668"/>
<path d="M632 668.784L557.52 650.622L562.623 581L630.48 600.373L632 668.784Z" fill="#909EB2"/>
<path d="M404.703 641.622L409.284 572L375.18 599.67L365 665.838L404.703 641.622Z" fill="#F2F7FD"/>
<path d="M478 662.811L404.419 641.622L365 665.838L434.64 684L478 662.811Z" fill="#455668"/>
<path d="M478 662.811L404.703 641.622L409.284 572L478 591.373V662.811Z" fill="#909EB2"/>
<path d="M632.154 491.115L706 512.557L652.154 534L586 515.621L632.154 491.115Z" fill="#3E7C8A"/>
<path d="M632.154 491.115L632.154 413L699.846 440.569L706 512.557L632.154 491.115Z" fill="#31D7E1"/>
<path d="M632.154 491.115L632.154 413L593.692 448.228L590.29 514.517L632.154 491.115Z" fill="#B4FAFF"/>
<path d="M215.684 356.365L223.147 312L198.254 331.046L190 370.337L215.684 356.365Z" fill="#F2F7FD"/>
<path d="M258.164 375.16L215.684 356.365L190.036 369.924L225.4 386L258.164 375.16Z" fill="#455668"/>
<path d="M258.164 375.16L215.684 356.365L223.147 312L262 330.239L258.164 375.16Z" fill="#909EB2"/>
<path d="M476.197 498.571L480.788 438L447.028 472.378L441 525.829L476.197 498.571Z" fill="#F2F7FD"/>
<path d="M542 522.8L476.197 498.571L441 525.829L500.627 544L542 522.8Z" fill="#455668"/>
<path d="M542 522.8L476.197 498.571L480.788 438L542 461.887V522.8Z" fill="#909EB2"/>
<path d="M460.698 608.783L469.837 519L427.186 554L415 637.696L460.698 608.783Z" fill="#B4FAFF"/>
<path d="M546 633.13L460.698 608.783L415 637.696L495.733 659L546 633.13Z" fill="#3E7C8A"/>
<path d="M546 633.13L460.698 608.783L469.837 519L546 543.348V633.13Z" fill="#31D7E1"/>
<path d="M431.977 371.27L438.184 319L404.002 352.54L395 400.035L431.977 371.27Z" fill="#F2F7FD"/>
<path d="M486 402.053L431.977 371.27L395.03 399.677L442.596 420L486 402.053Z" fill="#455668"/>
<path d="M485.96 402.531L431.977 371.27L438.184 319L484.435 356.24L485.96 402.531Z" fill="#909EB2"/>
<path d="M521.034 341.128L528.621 264L481.586 316.447L474 385.862L521.034 341.128Z" fill="#F2F7FD"/>
<path d="M606 378.149L521.034 341.128L474 385.862L545.31 409L606 378.149Z" fill="#455668"/>
<path d="M606 378.149L521.034 341.128L528.621 264L604.483 305.649L606 378.149Z" fill="#909EB2"/>
<path d="M662.339 621.114L750.989 646.049L690.715 675L612 656.042L662.339 621.114Z" fill="#455668"/>
<path d="M662.339 621.114L660.813 530L742.526 557.303L751 646.291L662.339 621.114Z" fill="#909EB2"/>
<path d="M662.339 621.114L661.063 530.888L615.051 571.001L612 656.042L662.339 621.114Z" fill="#F2F7FD"/>
<path d="M917.273 248.265L914.182 209L938.136 234.998L942 269.408L917.273 248.265Z" fill="#31D7E1"/>
<path d="M874 266.388L917.273 248.265L942 269.408L904.909 283L874 266.388Z" fill="#3E7C8A"/>
<path d="M874 266.388L917.273 248.265L914.182 209L875.545 230.143L874 266.388Z" fill="#B4FAFF"/>
<path d="M751.734 339.362L746.106 270L791.932 313.834L804 375.907L751.734 339.362Z" fill="#31D7E1"/>
<path d="M682 378.544L751.734 339.362L803.96 375.439L740.189 402L682 378.544Z" fill="#3E7C8A"/>
<path d="M682.053 379.169L751.734 339.362L746.106 270L684.099 318.67L682.053 379.169Z" fill="#B4FAFF"/>
<path d="M377.143 178.282L381.772 147L360.171 165.769L354 192.359L377.143 178.282Z" fill="#909EB2"/>
<path d="M408 198.615L377.143 178.282L354 192.359L381.772 208L408 198.615Z" fill="#455668"/>
<path d="M408 198.615L377.143 178.282L381.772 147L407.548 170.462L408 198.615Z" fill="#F2F7FD"/>
<path d="M529.373 454.506L535.494 376L492.651 419.101L485 489.91L529.373 454.506Z" fill="#F2F7FD"/>
<path d="M612 485.292L529.373 454.506L485 489.91L559.976 513L612 485.292Z" fill="#455668"/>
<path d="M612 485.292L529.373 454.506L535.494 376L612 406.787V485.292Z" fill="#909EB2"/>
<path d="M527.935 570.598L622.872 597.935L560.937 629.605L470.727 605.181L527.935 570.598Z" fill="#455668"/>
<path d="M527.935 570.598L531.75 466.96L619.116 497.67L622.872 597.935L527.935 570.598Z" fill="#909EB3"/>
<path d="M527.935 570.598L531.75 466.96L477.964 510.682L470.727 605.181L527.935 570.598Z" fill="#F2F7FD"/>
<path d="M221 866.456L326.106 842.456C327.344 848.728 321.963 885.542 321.963 892.899L321.035 904.979L297.83 905.908L291.83 964.541C291.675 965.857 291.056 967.096 289.973 968.258C286.493 967.406 283.089 966.167 279.763 964.541L275.122 968.258H252.846L249.133 967.329L250.133 907.908L224 906.979L221 866.456ZM252.846 969.187L288.117 976.671L295.543 971.975V985.913L281.62 987.772H275.122V995.206L288.117 997.064L284.404 1007.29C288.581 1007.75 291.056 1010.23 291.83 1014.72V1026.8H288.117C286.879 1030.13 285.951 1033.85 285.332 1037.95L291.83 1048.83L275.122 1066.27L261.199 1042.6L249.133 1046.31C246.813 1043.37 245.575 1039.65 245.42 1035.16V1005.43C245.498 1001.32 246.116 996.987 247.277 992.418L249.133 979.409L263.056 978.479L264.912 991.489C262.514 994.354 261.277 998.071 261.199 1002.64L260.271 1016.58C262.901 1018.82 266.305 1020.06 270.481 1020.29C271.796 1023.93 272.725 1027.96 273.266 1032.37L278.835 1033.3V1016.58H273.266C269.785 1015.65 267.619 1013.17 266.769 1009.14L265.84 994.276C267.155 990.947 268.084 987.23 268.625 983.126V974.763H252.846V969.187ZM291.83 990.919H303.253L297.127 995.565L295.543 1002.64L289.701 1006.72L291.83 990.919Z" fill="url(#paint4_linear_410_752)"/>
<path d="M408.411 789H452.252L453.18 792.717L445.754 837.664L453.18 960.672H422.831L419.119 961.601V1022.06L411.693 1023.92V943.016H402.411L408.411 792.717L407.483 791.788L408.411 789ZM398.699 948.675L408.909 945.804V953.238L406.124 966.247L392.26 965.885L398.699 948.675ZM399.627 968.105H408.909V1046.22L407.98 1049.01L398.699 1048.08L399.627 1039.72V968.105ZM422.831 971.822H445.754C447.765 974.223 450.241 976.701 453.18 979.256V993.195C453.721 996.369 464.464 1015.33 466.397 1018.35L456.893 1057.37H453.18C450.859 1059.08 448.075 1060.63 444.826 1062.02C442.66 1060.78 441.113 1058.92 440.185 1056.44H444.826L446.683 1051.8H440.185C437.865 1053.5 426.08 1055.05 422.831 1056.44V971.822ZM411.693 1029.25L420.047 1044.7V1067H412.621L411.693 1029.25ZM442.97 1035.07L449.467 1036.93C450.241 1036.78 452.716 1017.47 453.18 1016.39L442.97 1035.07Z" fill="url(#paint5_linear_410_752)"/>
<path d="M532.5 834.5L661.263 840.664C662.5 846.936 634.5 853.644 634.5 861V905.908L609.074 901L606.29 968.885C606.135 970.201 605.516 971.44 604.433 972.602C600.952 971.75 597.549 970.511 594.223 968.885L589.582 972.602H565.306L561.593 971.672V887V901L532.5 904.979V834.5ZM565.306 975.117H609.074L610.002 977.904V995.014L596.079 996.873H589.582V1004.31L602.577 1006.17L598.864 1016.39C603.041 1016.85 605.516 1019.33 606.29 1023.82V1035.9H602.577C601.339 1039.23 600.411 1042.95 599.792 1047.05V1051.7H589.582L561.593 1055.41C559.272 1052.47 558.035 1048.75 557.88 1044.26V1014.53C557.957 1010.42 558.576 1006.09 559.736 1001.52L561.593 983.752L577.516 982.823L579.372 1000.59C576.974 1003.45 575.737 1007.17 575.659 1011.74L574.731 1025.68C577.361 1027.92 580.764 1029.16 584.941 1029.4C586.256 1033.04 587.184 1037.06 587.726 1041.48L593.295 1042.41V1025.68H587.726C584.245 1024.75 582.079 1022.27 581.228 1018.25L580.3 1003.38C581.615 1000.05 582.543 996.331 583.085 992.227V980.692H565.306V975.117ZM602.577 1050.77H609.074V1062.85L608.146 1065.64L602.577 1066.56V1050.77Z" fill="url(#paint6_linear_410_752)"/>
<path d="M709.273 796.465H763.108C766.898 798.401 769.373 801.808 770.534 806.686L768.111 811.332C768.575 815.669 770.998 832.088 772.39 837.664L786.313 986.225H756.611V1013.17L747.329 1015.03V1007.6L743.616 993.659V976.004L745.472 966.712L739.597 862.245L734.334 966.712H695.35L696.278 963.924L706.488 837.664C706.488 825.77 708.19 824.596 709.273 818.633L706.488 811.332C706.952 806.996 707.881 802.04 709.273 796.465ZM690.709 977.974L722.268 973.216C725.98 973.758 728.765 975.617 730.621 978.792H738.975V998.305L736.19 999.235H729.693V1007.6C728.533 1011.47 725.748 1013.95 721.339 1015.03L711.129 1019.68H703.704V1001.09H699.063V1016.89C694.963 1018.21 690.632 1019.14 686.068 1019.68H680.499L681.427 1010.39C681.969 1006.59 683.825 1003.18 686.996 1000.16L690.709 977.974ZM761.635 998.305H787.241L788.169 1001.09L791.882 1024.32C791.573 1025.41 790.954 1026.34 790.026 1027.11C785.617 1027.11 780.976 1026.49 776.103 1025.25L762.18 1027.11H761.635V998.305ZM731.549 1003.88H740.831V1012.24H731.549V1003.88ZM719.483 1019.68H729.693V1036.4C728.378 1038.03 726.522 1044.03 724.124 1044.88V1034.55H712.057C711.516 1038.11 710.588 1046.58 709.273 1050.45C708.422 1047.12 707.803 1038.65 707.417 1034.55C709.35 1031.53 712.444 1029.98 716.698 1029.9C718.013 1026.65 718.942 1023.24 719.483 1019.68ZM751.042 1019.68H756.611V1038.37H751.97L751.042 1019.68ZM684.212 1029.9H701.847L702.776 1043.84C702.621 1044.53 702.002 1045.15 700.919 1045.7H683.284L682.355 1041.98L684.212 1032.69V1029.9ZM758.467 1036.52H768.677V1050.45H758.467V1036.52ZM776.103 1036.52H788.169C791.882 1036.82 794.357 1038.68 795.595 1042.09L796.523 1048.6L793.738 1050.45H781.672C780.512 1053.01 778.965 1055.49 777.031 1057.89C773.937 1056.03 772.39 1053.24 772.39 1049.52L776.103 1041.16L772.39 1037.44L776.103 1036.52ZM713.914 1047.67H726.909C726.135 1050.07 724.897 1052.54 723.196 1055.1C720.411 1056.88 717.317 1058.12 713.914 1058.82V1047.67Z" fill="url(#paint7_linear_410_752)"/>
<path d="M849.324 842.638H883.667L907.088 935.825C908.325 930.869 908.944 925.294 908.944 919.099L906.944 873.425H906.016L906.944 872.496C910.27 871.567 913.983 870.947 920.082 872.638L941.215 874.638L945.215 975.923H935.933V985.216H927.58V1008.45L923.867 1014.02H935.933C934.232 1014.95 932.994 1016.5 932.221 1018.67C928.817 1016.96 924.795 1015.73 920.154 1014.95C918.066 1017.27 915.281 1018.51 911.8 1018.67C909.403 1017.35 907.237 1015.49 905.303 1013.09L900.662 995.437L910.872 994.508C908.784 992.804 906.309 991.565 903.447 990.791C897.414 989.784 893.701 985.758 892.308 978.711C891.148 974.994 888.601 969.277 886.667 965.56L887.667 988.933H878.386C875.524 989.01 872.739 989.939 870.032 991.72C873.048 992.34 875.214 994.198 876.529 997.296V1005.66H861.678C858.197 1004.73 856.341 1002.25 856.109 998.225C856.109 995.36 855.181 992.572 853.324 989.862L848.396 845.425L849.324 842.638ZM933.533 987.074H939.646V1012.16H930.364L933.533 987.074ZM849.612 994.508H853.324V1010.3H849.612V994.508ZM881.17 994.508H892.308V1027.03L893.237 1034.46L892.308 1036.32H888.596L883.027 1039.11V1017.74L884.883 1005.66C882.485 1002.72 881.248 998.999 881.17 994.508ZM857.693 1017.74L867.903 1010.3C871.152 1010.3 876.412 1025.23 879.97 1027.09V1051.25H867.903C864.655 1051.25 861.251 1050.32 857.693 1048.47V1017.74ZM851.468 1013.09L853.324 1026.1V1040.04L851.468 1027.03V1013.09ZM938.718 1014.02H948V1028.89L947.072 1036.32V1032.61L942.431 1037.25H928.508V1027.03C934.773 1024.55 938.177 1020.22 938.718 1014.02ZM907.16 1023.31H919.226C920.077 1026.26 921.314 1029.04 922.939 1031.68L919.226 1032.61C920.773 1036.79 922.011 1041.74 922.939 1047.47C920.154 1049.25 917.06 1050.49 913.657 1051.19V1040.97L907.16 1023.31Z" fill="url(#paint8_linear_410_752)"/>
<defs>
<linearGradient id="paint0_linear_410_752" x1="1155" y1="529.5" x2="146" y2="529.5" gradientUnits="userSpaceOnUse">
<stop stop-color="#4CC4DE"/>
<stop offset="0.537755" stop-color="#6BFF8C" stop-opacity="0.95"/>
<stop offset="1" stop-color="#56F4FF"/>
</linearGradient>
<linearGradient id="paint1_linear_410_752" x1="1155" y1="529.5" x2="146" y2="529.5" gradientUnits="userSpaceOnUse">
<stop stop-color="#4CC4DE"/>
<stop offset="0.537755" stop-color="#6BFF8C" stop-opacity="0.95"/>
<stop offset="1" stop-color="#56F4FF"/>
</linearGradient>
<linearGradient id="paint2_linear_410_752" x1="1155" y1="529.5" x2="146" y2="529.5" gradientUnits="userSpaceOnUse">
<stop stop-color="#4CC4DE"/>
<stop offset="0.537755" stop-color="#6BFF8C" stop-opacity="0.95"/>
<stop offset="1" stop-color="#56F4FF"/>
</linearGradient>
<linearGradient id="paint3_linear_410_752" x1="1155" y1="529.5" x2="146" y2="529.5" gradientUnits="userSpaceOnUse">
<stop stop-color="#4CC4DE"/>
<stop offset="0.537755" stop-color="#6BFF8C" stop-opacity="0.95"/>
<stop offset="1" stop-color="#56F4FF"/>
</linearGradient>
<linearGradient id="paint4_linear_410_752" x1="601.274" y1="815.461" x2="601.274" y2="1034.31" gradientUnits="userSpaceOnUse">
<stop offset="0.417552" stop-color="#3E7C8A"/>
<stop offset="1" stop-color="#31D7E1"/>
</linearGradient>
<linearGradient id="paint5_linear_410_752" x1="601.274" y1="815.461" x2="601.274" y2="1034.31" gradientUnits="userSpaceOnUse">
<stop offset="0.417552" stop-color="#3E7C8A"/>
<stop offset="1" stop-color="#31D7E1"/>
</linearGradient>
<linearGradient id="paint6_linear_410_752" x1="601.274" y1="815.461" x2="601.274" y2="1034.31" gradientUnits="userSpaceOnUse">
<stop offset="0.417552" stop-color="#3E7C8A"/>
<stop offset="1" stop-color="#31D7E1"/>
</linearGradient>
<linearGradient id="paint7_linear_410_752" x1="601.274" y1="815.461" x2="601.274" y2="1034.31" gradientUnits="userSpaceOnUse">
<stop offset="0.417552" stop-color="#3E7C8A"/>
<stop offset="1" stop-color="#31D7E1"/>
</linearGradient>
<linearGradient id="paint8_linear_410_752" x1="601.274" y1="815.461" x2="601.274" y2="1034.31" gradientUnits="userSpaceOnUse">
<stop offset="0.417552" stop-color="#3E7C8A"/>
<stop offset="1" stop-color="#31D7E1"/>
</linearGradient>
</defs>
</svg>
